<?xml version="1.0" encoding="iso-8859-1"?>
<!-- Generator: Adobe Illustrator 19.1.0, SVG Export Plug-In . SVG Version: 6.00 Build 0)  -->
<svg version="1.1" id="Capa_1" xmlns="http://www.w3.org/2000/svg" xmlns:xlink="http://www.w3.org/1999/xlink" x="0px" y="0px"
	 viewBox="0 0 64 64" style="enable-background:new 0 0 64 64;" xml:space="preserve">
<g>
	<g>
		<path d="M44.707,0c-8.271,0-15,6.729-15,15c0,1.676,0.288,3.282,0.798,4.789L4.293,46l4,4l-4,4l10,10h5.828l21.586-21.586
			L45.293,46L39,52.293l1.414,1.414L48.121,46l-6.414-6.414L19.293,62h-4.172l-8-8l2.586-2.586l4,4l26.212-26.211
			C41.425,29.712,43.031,30,44.707,30c8.271,0,15-6.729,15-15S52.978,0,44.707,0z M7.121,46l16.586-16.586L30.293,36L13.707,52.586
			L7.121,46z M31.707,34.586L25.121,28l6.223-6.222c1.442,2.833,3.753,5.143,6.586,6.586L31.707,34.586z M44.707,28
			c-7.168,0-13-5.832-13-13s5.832-13,13-13s13,5.832,13,13S51.875,28,44.707,28z"/>
	</g>
</g>
<g>
</g>
<g>
</g>
<g>
</g>
<g>
</g>
<g>
</g>
<g>
</g>
<g>
</g>
<g>
</g>
<g>
</g>
<g>
</g>
<g>
</g>
<g>
</g>
<g>
</g>
<g>
</g>
<g>
</g>
</svg>
