<?xml version="1.0" encoding="iso-8859-1"?>
<!-- Generator: Adobe Illustrator 19.1.0, SVG Export Plug-In . SVG Version: 6.00 Build 0)  -->
<svg version="1.1" id="Capa_1" xmlns="http://www.w3.org/2000/svg" xmlns:xlink="http://www.w3.org/1999/xlink" x="0px" y="0px"
	 viewBox="0 0 64.237 64.237" style="enable-background:new 0 0 64.237 64.237;" xml:space="preserve">
<g>
	<g>
		<path d="M46.118,40.237c-4.962,0-9,4.038-9,9s4.038,9,9,9s9-4.038,9-9V0l-30,6.428v43.165c-1.651-2.044-4.174-3.356-7-3.356
			c-4.962,0-9,4.038-9,9s4.038,9,9,9s9-4.038,9-9V24.046l26-5.571v25.119C51.467,41.549,48.944,40.237,46.118,40.237z
			 M18.118,62.237c-3.86,0-7-3.14-7-7s3.14-7,7-7s7,3.14,7,7S21.979,62.237,18.118,62.237z M27.118,22V8.046l26-5.572v13.955
			L27.118,22z M46.118,56.237c-3.86,0-7-3.14-7-7s3.14-7,7-7s7,3.14,7,7S49.979,56.237,46.118,56.237z"/>
	</g>
</g>
<g>
</g>
<g>
</g>
<g>
</g>
<g>
</g>
<g>
</g>
<g>
</g>
<g>
</g>
<g>
</g>
<g>
</g>
<g>
</g>
<g>
</g>
<g>
</g>
<g>
</g>
<g>
</g>
<g>
</g>
</svg>
