<?xml version="1.0" encoding="iso-8859-1"?>
<!-- Generator: Adobe Illustrator 19.1.0, SVG Export Plug-In . SVG Version: 6.00 Build 0)  -->
<svg version="1.1" id="Capa_1" xmlns="http://www.w3.org/2000/svg" xmlns:xlink="http://www.w3.org/1999/xlink" x="0px" y="0px"
	 viewBox="0 0 64 64" style="enable-background:new 0 0 64 64;" xml:space="preserve">
<g>
	<g>
		<path d="M20,54.985c7.72,0,14-6.28,14-14s-6.28-14-14-14s-14,6.28-14,14S12.28,54.985,20,54.985z M9.624,46.985H14v4.376
			C12.187,50.309,10.676,48.798,9.624,46.985z M16,52.285v-5.3h8v5.3c-1.253,0.445-2.596,0.7-4,0.7S17.253,52.729,16,52.285z
			 M16,44.985v-8h8v8H16z M26,51.361v-4.376h4.376C29.324,48.798,27.813,50.309,26,51.361z M31.3,44.985H26v-8h5.3
			c0.445,1.253,0.7,2.596,0.7,4S31.745,43.732,31.3,44.985z M30.376,34.985H26v-4.376C27.813,31.661,29.324,33.172,30.376,34.985z
			 M24,29.685v5.3h-8v-5.3c1.253-0.445,2.596-0.7,4-0.7S22.747,29.24,24,29.685z M14,30.609v4.376H9.624
			C10.676,33.172,12.187,31.661,14,30.609z M8.7,36.985H14v8H8.7c-0.445-1.253-0.7-2.596-0.7-4S8.255,38.237,8.7,36.985z"/>
		<path d="M49,26.985h-7v6h7V26.985z M47,30.985h-3v-2h3V30.985z"/>
		<path d="M58,26.985h-7v6h7V26.985z M56,30.985h-3v-2h3V30.985z"/>
		<path d="M52,42.985c-3.309,0-6,2.691-6,6s2.691,6,6,6s6-2.691,6-6S55.309,42.985,52,42.985z M52,52.985c-2.206,0-4-1.794-4-4
			c0-1.858,1.279-3.411,3-3.858v2.858h2v-2.858c1.721,0.447,3,2,3,3.858C56,51.191,54.206,52.985,52,52.985z"/>
		<path d="M10,16.985H7v-0.223L53.247,4.953l-0.494-1.938L5,15.207v1.777H2v4H0v40h64v-40H10V16.985z M4,18.985h4v2H4V18.985z
			 M62,58.985H2v-36h60V58.985z"/>
	</g>
</g>
<g>
</g>
<g>
</g>
<g>
</g>
<g>
</g>
<g>
</g>
<g>
</g>
<g>
</g>
<g>
</g>
<g>
</g>
<g>
</g>
<g>
</g>
<g>
</g>
<g>
</g>
<g>
</g>
<g>
</g>
</svg>
